<?xml version="1.0" ?><!DOCTYPE svg  PUBLIC '-//W3C//DTD SVG 1.1//EN'  'http://www.w3.org/Graphics/SVG/1.1/DTD/svg11.dtd'><svg height="2048px" style="shape-rendering:geometricPrecision; text-rendering:geometricPrecision; image-rendering:optimizeQuality; fill-rule:evenodd; clip-rule:evenodd" viewBox="0 0 2048 2048" width="2048px" xml:space="preserve" xmlns="http://www.w3.org/2000/svg" xmlns:xlink="http://www.w3.org/1999/xlink"><defs><style type="text/css">
   <![CDATA[
    .fil3 {fill:none}
    .fil1 {fill:#51B885}
    .fil2 {fill:#FFFFFE}
    .fil0 {fill:#333333;fill-rule:nonzero}
   ]]>
  </style></defs><g id="Layer_x0020_1"><g id="_510563376"><path class="fil0" d="M1445.07 1203.53c-1.82008,-2.83819 -10.0878,-6.74056 -22.4374,-12.5717 -3.0567,-1.44213 -6.32835,-2.98819 -10.1599,-4.84489l-0.311811 -0.125197c-12.5433,-6.37914 -54.4087,-26.8736 -89.1225,-43.2827 -22.7268,-10.7433 -42.4453,-19.8036 -49.076,-22.1823 -7.48819,-2.68937 -13.7504,-4.75276 -17.9457,-4.28032 -2.75197,0.31063 -5.72126,2.59134 -9.49253,8.31142l0 0.0625985c-5.48032,8.22993 -14.8488,20.224 -25.0122,32.674 -16.4303,20.1272 -34.0855,40.5177 -41.413,48.841l-0.0307087 -0.0271654c-8.67402,9.86576 -17.7992,15.4335 -29.0681,16.7953 -10.2118,1.23425 -21.0933,-1.40079 -34.1551,-7.8189l-0.124016 -0.0625985c-2.23819,-1.12323 -7.19292,-3.26103 -13.324,-5.9067 -29.8914,-12.8965 -88.1115,-38.0174 -155.141,-97.3631 -24.0744,-21.3095 -45.091,-44.3906 -62.5477,-65.954 -28.3099,-34.9677 -47.4071,-66.0615 -54.9922,-79.1575 -18.0673,-30.9839 -2.71654,-46.3359 11.4579,-60.5126l0.00236221 -0.00236221 0.0625985 0c5.69882,-5.68701 12.3827,-13.7221 19.089,-21.7819 3.9874,-4.79174 7.9878,-9.60119 11.041,-13.1209l-0.00472441 -0.00472441c7.38426,-8.5878 10.6736,-15.3047 15.1122,-24.3721 0.933072,-1.90866 1.92047,-3.92008 3.07205,-6.21851l-0.0259843 -0.0129921c1.89567,-3.81969 2.39646,-7.29449 2.07047,-10.448 -0.380315,-3.67677 -1.82362,-7.35001 -3.6,-10.8083l-0.125197 -0.186614c-3.51614,-7.08426 -22.5414,-53.0339 -40.076,-95.3847 -7.11615,-17.1886 -13.9453,-33.6803 -23.6032,-56.6906 -10.6264,-25.3358 -19.2473,-24.7748 -25.8591,-24.3461 -2.06339,0.134646 -4.04174,0.263386 -5.51693,0.263386 -5.77323,0 -12.3886,-0.420473 -19.2449,-0.853938 -6.34725,-0.401575 -12.9366,-0.819686 -20.087,-0.819686 -5.98583,0 -14.1402,1.24134 -22.7232,5.25945 -6.61064,3.09331 -13.5413,7.87323 -20.0776,15.0555l-0.125197 0.124016c-0.8563,0.918898 -2.35748,2.49685 -3.96969,4.19292 -20.0079,21.0319 -63.6249,66.88 -63.6249,154.547 0,94.7989 70.2119,187.329 80.4473,200.818l0.0625985 0 0.102756 0.135827 -0.0177165 0.0129921c1.25551,1.63701 2.96575,4.13504 5.44607,7.76457 27.0319,39.5351 151.303,221.286 338.029,294.216 168.412,65.7166 195.379,59.1898 219.466,53.3622 5.98465,-1.44921 11.8276,-2.86299 19.4551,-3.56811 18.4477,-1.73268 50.1603,-15.4335 77.9564,-34.8425 21.7937,-15.2185 40.4729,-33.4937 46.878,-51.3012 6.92008,-19.2815 10.8662,-37.4611 12.7252,-52.5709 2.14606,-17.4414 1.98189,-28.5992 0.543308,-31.004l0.0165354 -0.00944883zm-8.81221 -41.4473c17.5961,8.30788 29.3268,13.8473 36.1087,25.0193l0.0625985 0.0625985c4.45985,7.45158 6.84804,26.739 3.8315,51.2528 -2.07638,16.8756 -6.55512,37.3784 -14.4756,59.4473 -8.87717,24.6827 -32.0646,48.1252 -58.6276,66.6745 -32.0209,22.3595 -70.0725,38.2843 -93.332,40.4693 -5.16615,0.477166 -9.93898,1.63347 -14.8299,2.81693 -28.7233,6.94961 -60.88,14.7319 -238.59,-54.6119 -195.89,-76.5095 -324.749,-264.971 -352.779,-305.966 -2.3811,-3.48307 -3.99213,-5.83937 -4.42914,-6.40276l-0.125197 -0.125197 -0.102756 -0.135827 0.0401575 -0.0295276c-11.1532,-14.6988 -87.0509,-114.789 -87.0509,-220.038 0,-100.336 49.702,-152.58 72.502,-176.547 1.14331,-1.20118 2.19685,-2.30788 3.6,-3.81378l-0.00590552 -0.00472441c9.58229,-10.5284 20.0528,-17.6811 30.202,-22.4303 13.6843,-6.4063 26.6811,-8.38465 36.2233,-8.38465 7.17638,0 14.7709,0.480709 22.0878,0.944883 5.85119,0.370866 11.498,0.728741 17.2441,0.728741 1.39252,0 2.43425,-0.068504 3.51614,-0.138189 16.4669,-1.07008 37.9347,-2.46614 57.3591,43.8461 2.06221,4.91339 12.5776,30.3095 23.6032,56.941 17.2477,41.6575 35.9611,86.8536 39.202,93.3839l-0.0236221 0.011811c3.31536,6.49134 6.03308,13.7386 6.87402,21.8587 0.903544,8.72363 -0.338977,18.0366 -5.19567,27.8244l-0.0625985 0.0614174c-1.01339,2.02205 -2.02205,4.08071 -2.98347,6.04489 -5.52402,11.2819 -9.61536,19.6417 -19.487,31.1209l-0.0625985 0.0625985c-4.05473,4.67126 -7.39016,8.68111 -10.7232,12.6874 -7.3193,8.79686 -14.6138,17.5642 -21.0591,24.0012l0.0318898 0.0318898 -0.00236221 0.00236221c-5.82874,5.82874 -12.1406,12.1453 -6.45945,21.8882 7.19764,12.4264 25.3122,41.9233 52.1174,75.0331 16.5614,20.4567 36.3922,42.2587 58.9241,62.2028 62.993,55.7717 118.264,79.6205 146.642,91.8639 5.60906,2.42008 10.1575,4.38426 14.8228,6.71812 7.29922,3.58583 12.5705,5.1567 16.4055,4.6937 2.7626,-0.333071 5.58071,-2.35984 8.84764,-6.08032l0 -0.0625985c7.65355,-8.6941 25.6122,-29.4 40.6642,-47.8394 9.50434,-11.6421 18.1996,-22.761 23.1366,-30.1748l0.0295276 0.0188977c9.82914,-14.8878 20.4319,-21.1477 32.5866,-22.5189 10.7209,-1.20827 20.7201,1.90866 32.1969,6.03071 8.15906,2.92796 28.7634,12.3449 51.9508,23.3067 35.8831,16.9618 77.8619,37.487 89.9965,43.6583l-0.0106299 0.0200788c3.1878,1.5437 6.50434,3.10866 9.60828,4.57441z" id="_510563424"/><path class="fil0" d="M1775.85 1005.17c0,202.31 -82.6843,385.551 -216.388,518.21 -133.648,132.601 -318.228,214.642 -522.111,214.642 -63.7453,0 -125.538,-8.01024 -184.498,-23.0929 -58.5201,-14.9728 -114.263,-36.9414 -166.363,-64.9808l-393.525 125.235 -30.0532 9.56339 10.115 -29.876 127.945 -377.906c-32.2996,-54.3933 -57.7796,-113.326 -75.1973,-175.567 -17.5288,-62.6445 -26.9232,-128.558 -26.9232,-196.482 0,-202.349 82.6997,-385.609 216.442,-518.275 133.683,-132.607 318.322,-214.644 522.294,-214.644 203.798,0 388.346,82.0654 521.966,214.743 133.637,132.696 216.295,315.991 216.295,518.431zm-238.888 495.585c127.833,-126.834 206.887,-302.073 206.887,-495.585 0,-193.645 -79.0276,-368.939 -206.795,-495.806 -127.787,-126.886 -304.374,-205.368 -499.466,-205.368 -195.273,0 -371.951,78.4536 -499.794,205.269 -127.872,126.843 -206.941,302.1 -206.941,495.65 0,65.1981 8.95749,128.252 25.6713,187.983 17.3221,61.9016 42.9496,120.336 75.554,173.986l3.87166 6.36969 -2.37166 7.00512 -120.186 354.984 369.979 -117.741 6.55158 -2.08583 5.94922 3.27402c51.4004,28.2756 106.661,50.3493 164.856,65.2394 56.4024,14.4284 115.556,22.0914 176.622,22.0914 195.182,0 371.802,-78.4571 499.611,-205.266z" id="_510563544"/></g><path class="fil1" d="M1536.96 1500.76c127.833,-126.834 206.887,-302.073 206.887,-495.585 0,-193.645 -79.0276,-368.939 -206.795,-495.806 -127.787,-126.886 -304.374,-205.368 -499.466,-205.368 -195.273,0 -371.951,78.4536 -499.794,205.269 -127.872,126.843 -206.941,302.1 -206.941,495.65 0,65.1981 8.95749,128.252 25.6713,187.983 17.3221,61.9016 42.9496,120.336 75.554,173.986l3.87166 6.36969 -2.37166 7.00512 -120.186 354.984 369.979 -117.741 6.55158 -2.08583 5.94922 3.27402c51.4004,28.2756 106.661,50.3493 164.856,65.2394 56.4024,14.4284 115.556,22.0914 176.622,22.0914 195.182,0 371.802,-78.4571 499.611,-205.266zm-848.901 -860.607l0 0zm176.738 288.594l0 0zm471.865 185.08c35.8831,16.9618 77.8619,37.487 89.9965,43.6583l-0.0106299 0.0200788c3.1878,1.5437 6.50434,3.10866 9.60828,4.57441 17.5961,8.30788 29.3268,13.8473 36.1087,25.0193l0.0625985 0.0625985c4.45985,7.45158 6.84804,26.739 3.8315,51.2528 -2.07638,16.8756 -6.55512,37.3784 -14.4756,59.4473 -8.87717,24.6827 -32.0646,48.1252 -58.6276,66.6745 -32.0209,22.3595 -70.0725,38.2843 -93.332,40.4693 -5.16615,0.477166 -9.93898,1.63347 -14.8299,2.81693 -28.7233,6.94961 -60.88,14.7319 -238.59,-54.6119 -195.89,-76.5095 -324.749,-264.971 -352.779,-305.966 -2.3811,-3.48307 -3.99213,-5.83937 -4.42914,-6.40276l-0.125197 -0.125197 -0.102756 -0.135827 0.0401575 -0.0295276c-11.1532,-14.6988 -87.0509,-114.789 -87.0509,-220.038 0,-100.336 49.702,-152.58 72.502,-176.547 1.14331,-1.20118 2.19685,-2.30788 3.5941,-3.81851 9.58229,-10.5284 20.0528,-17.6811 30.202,-22.4303 13.6843,-6.4063 26.6811,-8.38465 36.2233,-8.38465 7.17638,0 14.7709,0.480709 22.0878,0.944883 5.85119,0.370866 11.498,0.728741 17.2441,0.728741 1.39252,0 2.43425,-0.068504 3.51614,-0.138189 16.4669,-1.07008 37.9347,-2.46614 57.3591,43.8461 2.06221,4.91339 12.5776,30.3095 23.6032,56.941 17.2477,41.6575 35.9611,86.8536 39.202,93.3839l-0.0236221 0.011811c3.31536,6.49134 6.03308,13.7386 6.87402,21.8587 0.903544,8.72363 -0.338977,18.0366 -5.19567,27.8244l-0.0625985 0.0614174c-1.01339,2.02205 -2.02205,4.08071 -2.98347,6.04489 -5.52402,11.2819 -9.61536,19.6417 -19.487,31.1209l-0.0625985 0.0625985c-4.05473,4.67126 -7.39016,8.68111 -10.7232,12.6874 -7.3193,8.79686 -14.6138,17.5642 -21.0591,24.0012l0.0295276 0.034252c-5.82874,5.82874 -12.1406,12.1453 -6.45945,21.8882 7.19764,12.4264 25.3122,41.9233 52.1174,75.0331 16.5614,20.4567 36.3922,42.2587 58.9241,62.2028 62.993,55.7717 118.264,79.6205 146.642,91.8639 5.60906,2.42008 10.1575,4.38426 14.8228,6.71812 7.29922,3.58583 12.5705,5.1567 16.4055,4.6937 2.7626,-0.333071 5.58071,-2.35984 8.84764,-6.08032l0 -0.0625985c7.65355,-8.6941 25.6122,-29.4 40.6642,-47.8394 9.50434,-11.6421 18.1996,-22.761 23.1366,-30.1748l0.0295276 0.0188977c9.82914,-14.8878 20.4319,-21.1477 32.5866,-22.5189 10.7209,-1.20827 20.7201,1.90866 32.1969,6.03071 8.15906,2.92796 28.7634,12.3449 51.9508,23.3067z"/><path class="fil2" d="M842.175 906.119l0 0zm30.1925 -34.9028l0 0zm512.539 467.196c21.7937,-15.2185 40.4729,-33.4937 46.878,-51.3012 6.92008,-19.2815 10.8662,-37.4611 12.7252,-52.5709 2.14606,-17.4414 1.98189,-28.5992 0.543308,-31.004l0.0165354 -0.00944883c-1.82008,-2.83819 -10.0878,-6.74056 -22.4374,-12.5717 -3.0567,-1.44213 -6.32835,-2.98819 -10.1599,-4.84489l-0.311811 -0.125197c-12.5433,-6.37914 -54.4087,-26.8736 -89.1225,-43.2827 -22.7268,-10.7433 -42.4453,-19.8036 -49.076,-22.1823 -7.48819,-2.68937 -13.7504,-4.75276 -17.9457,-4.28032 -2.75197,0.31063 -5.72126,2.59134 -9.49253,8.31142l0 0.0625985c-5.48032,8.22993 -14.8488,20.224 -25.0122,32.674 -16.4303,20.1272 -34.0855,40.5177 -41.413,48.841l-0.0307087 -0.0271654c-8.67402,9.86576 -17.7992,15.4335 -29.0681,16.7953 -10.2118,1.23425 -21.0933,-1.40079 -34.1551,-7.8189l-0.124016 -0.0625985c-2.23819,-1.12323 -7.19292,-3.26103 -13.324,-5.9067 -29.8914,-12.8965 -88.1115,-38.0174 -155.141,-97.3631 -24.0744,-21.3095 -45.091,-44.3906 -62.5477,-65.954 -28.3099,-34.9677 -47.4071,-66.0615 -54.9922,-79.1575 -18.0673,-30.9839 -2.71654,-46.3359 11.4602,-60.515l0.0625985 0c5.69882,-5.68701 12.3827,-13.7221 19.089,-21.7819 3.9874,-4.79174 7.9878,-9.60119 11.0362,-13.1256 7.38426,-8.5878 10.6736,-15.3047 15.1122,-24.3721 0.933072,-1.90866 1.92047,-3.92008 3.07205,-6.21851l-0.0259843 -0.0129921c1.89567,-3.81969 2.39646,-7.29449 2.07047,-10.448 -0.380315,-3.67677 -1.82362,-7.35001 -3.6,-10.8083l-0.125197 -0.186614c-3.51614,-7.08426 -22.5414,-53.0339 -40.076,-95.3847 -7.11615,-17.1886 -13.9453,-33.6803 -23.6032,-56.6906 -10.6264,-25.3358 -19.2473,-24.7748 -25.8591,-24.3461 -2.06339,0.134646 -4.04174,0.263386 -5.51693,0.263386 -5.77323,0 -12.3886,-0.420473 -19.2449,-0.853938 -6.34725,-0.401575 -12.9366,-0.819686 -20.087,-0.819686 -5.98583,0 -14.1402,1.24134 -22.7232,5.25945 -6.61064,3.09331 -13.5413,7.87323 -20.0776,15.0555l-0.125197 0.124016 -3.96969 4.19292c-20.0079,21.0319 -63.6249,66.88 -63.6249,154.547 0,94.7989 70.2119,187.329 80.4473,200.818l0.0625985 0 0.102756 0.135827 -0.0177165 0.0129921c1.25551,1.63701 2.96575,4.13504 5.44607,7.76457 27.0319,39.5351 151.303,221.286 338.029,294.216 168.412,65.7166 195.379,59.1898 219.466,53.3622 5.98465,-1.44921 11.8276,-2.86299 19.4551,-3.56811 18.4477,-1.73268 50.1603,-15.4335 77.9564,-34.8425z"/></g><rect class="fil3" height="2048" width="2048"/></svg>